<svg viewBox="0 0 330 200" xmlns="http://www.w3.org/2000/svg"><g><g><g><g><g><line x1="48.875" y1="177" x2="43.875" y2="177" style="visibility: inherit;" fill="rgb(0, 0, 0)" stroke="rgb(204, 204, 204)" stroke-width="1px"></line><line x1="48.875" y1="157.33333333333331" x2="43.875" y2="157.33333333333331" style="visibility: inherit;" fill="rgb(0, 0, 0)" stroke="rgb(204, 204, 204)" stroke-width="1px"></line><line x1="48.875" y1="137.66666666666669" x2="43.875" y2="137.66666666666669" style="visibility: inherit;" fill="rgb(0, 0, 0)" stroke="rgb(204, 204, 204)" stroke-width="1px"></line><line x1="48.875" y1="117.99999999999999" x2="43.875" y2="117.99999999999999" style="visibility: inherit;" fill="rgb(0, 0, 0)" stroke="rgb(204, 204, 204)" stroke-width="1px"></line><line x1="48.875" y1="98.33333333333334" x2="43.875" y2="98.33333333333334" style="visibility: inherit;" fill="rgb(0, 0, 0)" stroke="rgb(204, 204, 204)" stroke-width="1px"></line><line x1="48.875" y1="78.66666666666666" x2="43.875" y2="78.66666666666666" style="visibility: inherit;" fill="rgb(0, 0, 0)" stroke="rgb(204, 204, 204)" stroke-width="1px"></line><line x1="48.875" y1="58.99999999999997" x2="43.875" y2="58.99999999999997" style="visibility: inherit;" fill="rgb(0, 0, 0)" stroke="rgb(204, 204, 204)" stroke-width="1px"></line><line x1="48.875" y1="39.33333333333334" x2="43.875" y2="39.33333333333334" style="visibility: inherit;" fill="rgb(0, 0, 0)" stroke="rgb(204, 204, 204)" stroke-width="1px"></line><line x1="48.875" y1="19.66666666666663" x2="43.875" y2="19.66666666666663" style="visibility: inherit;" fill="rgb(0, 0, 0)" stroke="rgb(204, 204, 204)" stroke-width="1px"></line><line x1="48.875" y1="0" x2="43.875" y2="0" style="visibility: inherit;" fill="rgb(0, 0, 0)" stroke="rgb(204, 204, 204)" stroke-width="1px"></line></g><g transform="translate(38.875, 0)"><text x="0" y="177" dx="0em" dy="0.3em" style="text-anchor: end; visibility: hidden; font-family: &quot;Helvetica Neue&quot;, sans-serif; font-size: 12px; font-weight: 200;" fill="rgb(50, 49, 63)" stroke="none" stroke-width="1px">0.5</text><text x="0" y="157.33333333333331" dx="0em" dy="0.3em" style="text-anchor: end; visibility: inherit; font-family: &quot;Helvetica Neue&quot;, sans-serif; font-size: 12px; font-weight: 200;" fill="rgb(50, 49, 63)" stroke="none" stroke-width="1px">0.55</text><text x="0" y="137.66666666666669" dx="0em" dy="0.3em" style="text-anchor: end; visibility: hidden; font-family: &quot;Helvetica Neue&quot;, sans-serif; font-size: 12px; font-weight: 200;" fill="rgb(50, 49, 63)" stroke="none" stroke-width="1px">0.6</text><text x="0" y="117.99999999999999" dx="0em" dy="0.3em" style="text-anchor: end; visibility: inherit; font-family: &quot;Helvetica Neue&quot;, sans-serif; font-size: 12px; font-weight: 200;" fill="rgb(50, 49, 63)" stroke="none" stroke-width="1px">0.65</text><text x="0" y="98.33333333333334" dx="0em" dy="0.3em" style="text-anchor: end; visibility: hidden; font-family: &quot;Helvetica Neue&quot;, sans-serif; font-size: 12px; font-weight: 200;" fill="rgb(50, 49, 63)" stroke="none" stroke-width="1px">0.7</text><text x="0" y="78.66666666666666" dx="0em" dy="0.3em" style="text-anchor: end; visibility: inherit; font-family: &quot;Helvetica Neue&quot;, sans-serif; font-size: 12px; font-weight: 200;" fill="rgb(50, 49, 63)" stroke="none" stroke-width="1px">0.75</text><text x="0" y="58.99999999999997" dx="0em" dy="0.3em" style="text-anchor: end; visibility: hidden; font-family: &quot;Helvetica Neue&quot;, sans-serif; font-size: 12px; font-weight: 200;" fill="rgb(50, 49, 63)" stroke="none" stroke-width="1px">0.8</text><text x="0" y="39.33333333333334" dx="0em" dy="0.3em" style="text-anchor: end; visibility: inherit; font-family: &quot;Helvetica Neue&quot;, sans-serif; font-size: 12px; font-weight: 200;" fill="rgb(50, 49, 63)" stroke="none" stroke-width="1px">0.85</text><text x="0" y="19.66666666666663" dx="0em" dy="0.3em" style="text-anchor: end; visibility: hidden; font-family: &quot;Helvetica Neue&quot;, sans-serif; font-size: 12px; font-weight: 200;" fill="rgb(50, 49, 63)" stroke="none" stroke-width="1px">0.9</text><text x="0" y="0" dx="0em" dy="0.3em" style="text-anchor: end; visibility: hidden; font-family: &quot;Helvetica Neue&quot;, sans-serif; font-size: 12px; font-weight: 200;" fill="rgb(50, 49, 63)" stroke="none" stroke-width="1px">0.95</text></g><line x1="48.875" y1="0" x2="48.875" y2="177" fill="rgb(0, 0, 0)" stroke="rgb(204, 204, 204)" stroke-width="1px"></line></g></g><g transform="translate(48, 0)" clip-path="url(#clip_0)"><clipPath id="clip_0"><rect width="281" height="177"></rect></clipPath><g><g><g><line x1="0" y1="0" x2="0" y2="177" fill="rgb(0, 0, 0)" stroke="rgb(60, 60, 60)" stroke-width="1px" opacity="0.25"></line><line x1="31.23611111111111" y1="0" x2="31.23611111111111" y2="177" fill="rgb(0, 0, 0)" stroke="rgb(60, 60, 60)" stroke-width="1px" opacity="0.25"></line><line x1="62.47222222222222" y1="0" x2="62.47222222222222" y2="177" fill="rgb(0, 0, 0)" stroke="rgb(60, 60, 60)" stroke-width="1px" opacity="0.25"></line><line x1="93.70833333333333" y1="0" x2="93.70833333333333" y2="177" fill="rgb(0, 0, 0)" stroke="rgb(60, 60, 60)" stroke-width="1px" opacity="0.25"></line><line x1="124.94444444444444" y1="0" x2="124.94444444444444" y2="177" fill="rgb(0, 0, 0)" stroke="rgb(60, 60, 60)" stroke-width="1px" opacity="0.25"></line><line x1="156.18055555555557" y1="0" x2="156.18055555555557" y2="177" fill="rgb(0, 0, 0)" stroke="rgb(60, 60, 60)" stroke-width="1px" opacity="0.25"></line><line x1="187.41666666666666" y1="0" x2="187.41666666666666" y2="177" fill="rgb(0, 0, 0)" stroke="rgb(60, 60, 60)" stroke-width="1px" opacity="0.25"></line><line x1="218.65277777777777" y1="0" x2="218.65277777777777" y2="177" fill="rgb(0, 0, 0)" stroke="rgb(60, 60, 60)" stroke-width="1px" opacity="0.25"></line><line x1="249.88888888888889" y1="0" x2="249.88888888888889" y2="177" fill="rgb(0, 0, 0)" stroke="rgb(60, 60, 60)" stroke-width="1px" opacity="0.25"></line><line x1="281.125" y1="0" x2="281.125" y2="177" fill="rgb(0, 0, 0)" stroke="rgb(60, 60, 60)" stroke-width="1px" opacity="0.25"></line></g><g><line x1="0" y1="177" x2="281.125" y2="177" fill="rgb(0, 0, 0)" stroke="rgb(60, 60, 60)" stroke-width="1px" opacity="0.25"></line><line x1="0" y1="157.33333333333331" x2="281.125" y2="157.33333333333331" fill="rgb(0, 0, 0)" stroke="rgb(60, 60, 60)" stroke-width="1px" opacity="0.25"></line><line x1="0" y1="137.66666666666669" x2="281.125" y2="137.66666666666669" fill="rgb(0, 0, 0)" stroke="rgb(60, 60, 60)" stroke-width="1px" opacity="0.25"></line><line x1="0" y1="117.99999999999999" x2="281.125" y2="117.99999999999999" fill="rgb(0, 0, 0)" stroke="rgb(60, 60, 60)" stroke-width="1px" opacity="0.25"></line><line x1="0" y1="98.33333333333334" x2="281.125" y2="98.33333333333334" fill="rgb(0, 0, 0)" stroke="rgb(60, 60, 60)" stroke-width="1px" opacity="0.25"></line><line x1="0" y1="78.66666666666666" x2="281.125" y2="78.66666666666666" fill="rgb(0, 0, 0)" stroke="rgb(60, 60, 60)" stroke-width="1px" opacity="0.25"></line><line x1="0" y1="58.99999999999997" x2="281.125" y2="58.99999999999997" fill="rgb(0, 0, 0)" stroke="rgb(60, 60, 60)" stroke-width="1px" opacity="0.25"></line><line x1="0" y1="39.33333333333334" x2="281.125" y2="39.33333333333334" fill="rgb(0, 0, 0)" stroke="rgb(60, 60, 60)" stroke-width="1px" opacity="0.25"></line><line x1="0" y1="19.66666666666663" x2="281.125" y2="19.66666666666663" fill="rgb(0, 0, 0)" stroke="rgb(60, 60, 60)" stroke-width="1px" opacity="0.25"></line><line x1="0" y1="0" x2="281.125" y2="0" fill="rgb(0, 0, 0)" stroke="rgb(60, 60, 60)" stroke-width="1px" opacity="0.25"></line></g></g></g><g><g><line x1="0" y1="373.6666666666667" x2="281.125" y2="373.6666666666667" fill="rgb(0, 0, 0)" stroke="rgb(153, 153, 153)" stroke-width="1.5px"></line></g></g><g><g><line x1="31.23611111111111" y1="0" x2="31.23611111111111" y2="177" fill="rgb(0, 0, 0)" stroke="rgb(153, 153, 153)" stroke-width="1.5px"></line></g></g><g><g><g><g><g><path stroke="rgb(255, 112, 67)" stroke-width="2px" d="M34.98444444444444,182.22066626405987L35.140625,176.98520437938225L35.921527777777776,173.84425818744498L36.077708333333334,184.5469419057542L36.233888888888885,180.89875050454407L36.39006944444444,159.8296376285353L36.54625,163.55114830124427L36.85861111111112,160.74934454704766L37.327152777777776,155.29226178141548L37.483333333333334,148.2420079579522L37.79569444444444,147.78786549999384L37.951875,148.77405031306725L38.10805555555556,143.07243116295908L38.26423611111111,142.16879063097934L38.57659722222222,159.24793562091253L38.888958333333335,150.61542360106282L39.04513888888889,145.43591682885372L39.51368055555555,143.58687279951272L39.66986111111111,142.47745579361126L39.82604166666667,139.29446714145615L39.98222222222222,128.57400815025045L40.13840277777778,139.76307377401312L40.60694444444444,143.95917468121695L40.763124999999995,143.9595061591334L41.07548611111111,155.2876998784245L41.23166666666667,153.27395033354614L41.38784722222222,157.1003681006059L41.54402777777778,140.5162273844375L41.700208333333336,134.34173185365552L41.85638888888889,135.67170202782398L42.012569444444445,133.95235507511998L42.324930555555554,142.9900818875906L42.48111111111111,142.1193812655179L42.63729166666667,146.63161900643783L42.79347222222223,135.49363777038582L43.10583333333333,137.62152417301044L43.418194444444445,141.4155756938458L43.574374999999996,139.91600833185362L43.88673611111111,137.75759869723092L44.04291666666667,141.49722978617035L44.35527777777777,144.99966827916356L44.51145833333333,139.5491348259874L44.66763888888889,131.24415663996638L44.823819444444446,128.77848940761453L44.980000000000004,126.04042922857337L45.136180555555555,119.36291625143838L45.448541666666664,124.16708360935306L45.60472222222222,124.53224558924668L45.76090277777777,118.45801544563986L45.91708333333333,131.17613967484448L46.697986111111106,128.73767922854157L46.854166666666664,112.17060048502121L47.16652777777778,128.66235991590088L47.47888888888889,127.22941137317532L47.63506944444445,123.85231319048232L47.791250000000005,119.30871584601135L48.259791666666665,134.20389834992244L48.88451388888889,130.55433443358834L49.35305555555556,119.55393031738974L49.665416666666665,119.24702455701099L49.82159722222222,129.13221608460944L49.97777777777778,132.54599256631337L50.6025,127.04226190636513L50.75868055555556,122.48136367076609L50.91486111111111,122.26215378646438L51.071041666666666,130.94129362228145L51.38340277777778,126.07945191774346L51.53958333333333,116.8690008078828L52.008125,116.37740701167671L52.47666666666667,113.56511229909788L52.632847222222225,114.39507390640573L52.94520833333333,113.63437227556543L53.25756944444444,108.1432931829459L53.41375,113.65931149377224L53.56993055555556,115.71025326284047L53.726111111111116,116.94081832428142L53.88229166666667,115.16181892629088L54.03847222222222,105.28374414330099L54.350833333333334,114.46090174924558L54.50701388888889,114.93254757649436L54.66319444444444,113.9568564776186L54.819375,108.3367837041778L55.13173611111112,115.03406564614153L55.28791666666666,120.31110402874734L55.44409722222222,113.40800145228258L55.756458333333335,108.00747068897616L55.91263888888889,108.54315050547757L56.06881944444444,117.67521478397904L56.38118055555555,104.27446197865362L56.53736111111111,92.45801202097309L56.84972222222222,102.98947357916099L57.00590277777778,104.27368302216091L57.31826388888889,107.56153774501853L57.47444444444445,95.6889266982196L57.630624999999995,102.41068395065378L57.94298611111111,110.21974595439698L58.567708333333336,112.3878540995852L58.723888888888894,113.68870023110327L58.880069444444445,114.46922666560899L59.036249999999995,119.97220064042781L59.34861111111111,118.23932691120372L59.50479166666667,113.42359502138657L59.81715277777778,100.46482090367054L60.12951388888889,90.17222737598323L60.285694444444445,83.99667125937084L60.441874999999996,81.55000680683101L60.598055555555554,91.40999358096548L60.91041666666667,92.2913181535333L61.06659722222223,107.92412475060999L62.15986111111111,102.19979685532002L62.78458333333333,101.2825479307986L63.253125000000004,98.21486951902807L63.409305555555555,97.63292231159588L63.56548611111111,101.05975226162181L63.721666666666664,104.37451007126752L64.3463888888889,107.62203397448252L64.50256944444445,110.8292269116365L64.65875,103.94285815193592L64.81493055555556,109.88038125773872L65.28347222222222,114.70156433864797L65.43965277777778,115.07694513013581L65.59583333333333,101.45683096892012L65.7520138888889,102.09542823858882L65.90819444444445,94.9265900514195L66.064375,94.4012760358057L66.37673611111111,101.63809355320542L66.53291666666667,92.13486018313172L66.68909722222222,95.24357654968817L67.00145833333333,114.73014728021573L67.1576388888889,89.9207668133097L67.31381944444445,96.43245896265012L67.47,90.27013926842865L67.62618055555555,92.86608416123623L67.78236111111111,94.42366047471822L68.25090277777778,91.58217985492982L68.40708333333333,87.35998118159394L68.71944444444445,83.56799276016487L69.34416666666667,88.84479625627792L69.50034722222223,83.20021258754765L69.81270833333333,91.14146658756279L69.96888888888888,94.6475591479417L70.12506944444445,90.4578685970312L70.28125,81.65073631273941L70.43743055555555,87.69444238782265L70.59361111111112,79.99265245382192L71.06215277777777,91.73425956438503L71.53069444444444,88.70988884689723L71.686875,81.86059892449165L71.84305555555555,91.59635822935928L71.99923611111112,88.62714804588175L72.31159722222223,93.13895864513565L72.93631944444444,94.58737578726044L73.24868055555555,87.9044201457673L73.56104166666667,91.44665268763944L73.71722222222223,78.46798973702417L73.87340277777778,98.37145848327694L74.02958333333332,102.76153380426061L74.18576388888889,95.32625339082257L74.498125,95.8997526346726L74.65430555555555,94.98519234135247L74.96666666666667,94.43645616536038L75.27902777777778,85.2965393155696L75.59138888888889,87.36460451026053L76.37229166666667,89.86410346670527L76.68465277777779,87.58778581049191L76.84083333333332,82.4459969422786L77.15319444444444,84.39559111326346L77.309375,89.34136464593455L77.46555555555555,96.08481766222505L77.6217361111111,97.61356041494163L77.77791666666667,93.4961291968613L77.93409722222222,87.24967219152781L78.09027777777779,91.05380391509576L78.24645833333334,94.59495216666407L78.40263888888889,103.01297782694547L78.55881944444444,99.25310870112129L79.18354166666667,99.51453503827939L79.33972222222222,98.4127216231467L79.65208333333334,90.19962764729905L80.12062499999999,87.78910969664561L80.74534722222222,85.08413908662344L80.90152777777779,88.49582421252296L81.05770833333334,85.50815841835237L81.21388888888887,92.52623408604562L81.52624999999999,92.96106245658135L81.68243055555556,84.41130309030213L81.8386111111111,93.1267807288456L81.99479166666667,92.06272122483382L82.15097222222222,105.26962815853516L82.30715277777779,108.1591048268431L82.77569444444444,94.78879772988677L82.93187499999999,96.83595783333614L83.2442361111111,96.80558467797816L83.55659722222222,96.78733265137107L83.86895833333334,85.44841474534331L84.18131944444445,95.00771693929784L84.49368055555556,100.74328887787313L84.64986111111111,105.44330125844591L84.80604166666667,94.41797542847861L84.96222222222222,81.50945259895528L85.11840277777777,93.90299949109517L85.27458333333334,97.56313872969127L85.43076388888889,89.68987791122578L85.58694444444446,92.51792734691449L85.74312499999999,94.21475700832772L86.05548611111111,102.78484197634877L86.36784722222222,97.85755797333574L86.52402777777777,92.38385851447022L86.83638888888889,89.09964821694831L87.14874999999999,90.90512969071789L87.30493055555554,99.54040574615277L87.46111111111111,85.84158938478475L87.61729166666666,76.36361159494147L87.77347222222222,84.52216755714392L87.92965277777778,89.41731051226286L88.08583333333334,93.61305612496434L88.24201388888889,94.87183427515764L88.39819444444446,95.62711054307105L88.55437500000001,93.5629284911665L88.71055555555554,87.28975176811092L89.02291666666666,83.52584573427758L89.17909722222223,85.04350038846287L89.49145833333334,82.1781042842862L89.80381944444444,81.71752646141033L89.96000000000001,85.21717804217009L90.11618055555554,91.0929766429087L90.27236111111111,87.06645925438129L90.42854166666666,90.94388553060524L90.74090277777778,88.23566442662936L90.89708333333333,94.16273769101178L91.20944444444444,91.42565431809828L91.36562500000001,78.45539071529947L91.52180555555555,87.03590424678629L91.67798611111111,88.40819533559822L91.83416666666666,89.23157936668281L92.14652777777778,73.3629474699649L92.30270833333333,87.75643657407079L92.4588888888889,90.09918394939646L92.61506944444444,87.72884347790405L93.39597222222221,98.89331261368943L93.55215277777778,99.29865738582029L94.02069444444444,97.02451643644615L94.17687500000001,106.98804544587242L94.48923611111113,107.93148598181786L94.64541666666666,104.72156140669735L94.95777777777778,110.34760321059551L95.2701388888889,108.68855142322418L96.05104166666666,97.62379474477314L96.20722222222221,99.79560650410059L96.6757638888889,94.8053756059516L96.83194444444445,89.29388925440958L96.988125,93.53900337025236L97.14430555555556,96.08607183975803L97.30048611111111,93.83830526917873L97.45666666666666,96.26565297911382L97.76902777777778,102.75671971919031L98.0813888888889,99.09937259206312L98.39375,86.83563870975851L98.70611111111111,89.54672398640405L99.17465277777778,81.10404016856567L99.33083333333333,86.10774610609342L99.799375,84.07532093229213L99.95555555555556,95.44252049109728L100.11173611111111,85.90017791101171L100.26791666666668,83.95077063744564L100.58027777777777,85.2984740859586L100.73645833333333,86.10709615506636L101.205,89.10957969799381L101.36118055555556,80.8417535955195L101.67354166666668,85.95037416226572L102.14208333333333,92.7915635323936L102.610625,90.60293106733248L102.76680555555556,93.06575924057852L102.92298611111111,84.47412116070045L103.07916666666667,80.57780753020117L103.23534722222223,89.56801417535743L103.54770833333333,83.6341433389954L103.70388888888888,78.81515161975058L103.86006944444445,75.92376596600116L104.01625,77.96493284823677L104.17243055555556,76.67229454272297L104.32861111111112,80.9313696735301L104.48479166666667,86.00414380907208L104.79715277777777,92.82381594268001L105.10951388888888,83.07029534233122L105.26569444444445,78.47684282175206L105.73423611111112,79.49676958388986L105.89041666666667,78.8500658015424L106.51513888888888,75.94470509727874L106.98368055555555,66.64949212575007L107.13986111111112,77.43503603599899L107.45222222222223,83.90636238214833L107.60840277777777,89.04781802946803L107.92076388888889,84.58068549109184L108.07694444444444,88.19373329960914L108.233125,86.58556371023424L108.70166666666667,89.39667898668947L108.85784722222223,77.2380055164542L109.17020833333332,76.23613814365346L109.79493055555555,76.89367755960309L110.26347222222223,83.58152854071585L110.41965277777778,82.55958101526814L110.57583333333332,76.91175438588407L110.73201388888889,78.5577259001665L110.88819444444444,79.54529943093851L111.044375,77.62051449234404L111.20055555555555,70.17230681984698L111.51291666666667,100.94604528194112L111.66909722222222,99.27162776934372L111.82527777777779,90.7149713350173L111.98145833333332,95.65032183604455L112.13763888888889,89.80086637026278L112.29381944444444,90.06718198748155L112.45,87.70964230075508L113.07472222222222,85.0364586490891L113.23090277777779,94.7605339037479L114.1679861111111,98.07764999948546L114.48034722222222,96.29191200464528L114.63652777777779,90.18582047142323L114.79270833333334,96.59148177972078L114.9488888888889,100.43488794249677L115.10506944444444,91.41293681670656L115.26124999999999,83.48242770637724L115.41743055555555,88.79345722400538L115.5736111111111,79.39340151590143L115.72979166666667,81.30537401780703L115.88597222222222,81.19389767932027L116.04215277777779,74.83366578909036L116.19833333333334,74.79353430723516L116.35451388888887,74.769455418122L116.51069444444444,81.04833541619712L116.66687499999999,74.74632843121647L116.82305555555556,81.03445922405376L116.9792361111111,82.29000864269848L117.29159722222222,84.3020168891103L117.44777777777779,80.47454496724711L117.60395833333334,76.91940197449905L117.91631944444444,81.07963413259574L118.22868055555556,77.28244609591079L118.54104166666667,73.74547343426971L118.69722222222222,87.98594277485627L119.16576388888889,86.46089877317998L119.32194444444445,88.06320142923185L119.47812499999999,96.57657957183356L119.79048611111111,94.13260990842403L119.94666666666667,88.89022983589301L120.10284722222222,93.29679834134498L120.41520833333334,89.64740273527576L120.72756944444446,95.00977129840221L120.88374999999999,84.38186855576456L121.19611111111111,75.48778847532684L121.35229166666666,83.99667368537516L121.50847222222222,72.739333118238L121.66465277777777,76.05427313957885L121.82083333333334,81.81922604907122L121.97701388888889,75.20888156653578L122.13319444444446,71.24265612141967L122.28937499999999,76.41492678111797L122.44555555555554,83.29429682921972L122.75791666666666,74.83524543939991L122.91409722222222,64.72515649139265L123.07027777777778,69.98708856824662L123.53881944444446,71.88558797472888L123.69500000000001,76.8006858931035L123.85118055555554,78.49108480449814L124.16354166666666,74.4706566594221L124.31972222222223,67.0237229026662L124.47590277777778,72.62490701023576L124.63208333333334,69.69229014323454L124.94444444444444,65.41537221038122L125.25680555555554,66.62522910295196L125.41298611111111,66.09246464326941L125.56916666666666,64.51414612782969L125.88152777777778,71.11915156753643L126.19388888888889,76.34082404878808L126.50625000000001,84.5084950294519L126.66243055555555,84.37442074813988L126.81861111111111,83.03531633972254L127.28715277777778,75.93850760753428L127.91187500000001,79.23243767278674L128.06805555555556,83.72612476899593L128.2242361111111,76.35300204289574L128.38041666666666,78.22246511657605L128.5365972222222,79.34415233858168L128.84895833333331,82.5344843510453L129.0051388888889,83.19001434109593L129.47368055555555,70.99666829424291L129.62986111111113,72.49133581032669L129.94222222222223,68.35345945026664L130.25458333333333,74.68142753402107L130.41076388888888,60.856867473680055L130.87930555555556,63.890126260931225L131.19166666666666,70.74473964739735L131.3478472222222,68.56417096993663L131.5040277777778,62.221171649344754L131.8163888888889,73.51936515493074L131.97256944444445,63.93561894291368L132.12875,68.25470619952911L132.28493055555555,60.77683294747017L132.4411111111111,72.65276193380599L132.59729166666668,69.7089843417818L132.75347222222223,67.94273654216215L132.90965277777778,83.2456407999616L133.06583333333333,84.87539618346817L133.69055555555556,79.55990332643421L133.8467361111111,72.59460933772863L134.15909722222221,75.96742949347575L134.47145833333335,77.99111220912665L134.6276388888889,76.68800215925692L134.78381944444445,72.13012847705235L134.94,75.68874097707003L135.09618055555555,71.53057176774026L135.2523611111111,74.07034711185266L135.40854166666668,79.37020121500792L135.56472222222223,69.96344963601769L135.72090277777778,70.61273539796395L136.03326388888888,67.22629920284899L136.18944444444446,67.71176654283771L136.34562499999998,75.55505287359892L136.50180555555556,73.96770671831014L136.65798611111111,85.60196306602026L136.97034722222222,78.73718361633536L137.12652777777777,68.32497923718401L137.28270833333335,58.30165833520795L137.59506944444445,58.581002503362726L137.75125,67.55927477065367L137.90743055555555,72.94622875323084L138.0636111111111,71.1437524064592L138.21979166666665,66.28624956831607L138.37597222222223,70.92375379219814L138.53215277777778,67.41291023938953L138.68833333333333,76.63440830895759L138.84451388888888,75.87397981915544L139.31305555555556,71.64171507299146L139.62541666666667,76.65435277426367L139.93777777777777,73.36861744128142L140.40631944444445,81.46651122531776L140.5625,74.99723391668887L140.71868055555555,73.63300596636664L140.8748611111111,74.07313841360089L141.03104166666668,68.04388117260105L141.18722222222223,66.94367464065371L141.34340277777778,68.80087977854302L141.49958333333333,73.69119175796442L141.6557638888889,79.14270800267496L141.81194444444446,76.12029041795829L141.96812500000001,71.78952018786806L142.12430555555554,67.93237007679147L142.2804861111111,75.6874149939712L142.74902777777777,72.78843601751106L142.90520833333332,64.75573067788946L143.37375,63.71210574860177L143.52993055555555,63.085930791029114L143.84229166666668,67.74489330839842L143.99847222222223,71.79893065845008L144.15465277777778,75.4900316637061L144.31083333333333,67.63535728303405L144.46701388888889,79.28522434779693L144.62319444444447,66.13647461900328L145.0917361111111,60.76455383878478L145.24791666666667,60.05873042771135L145.40409722222222,68.44590214746543L146.02881944444445,59.63288129880435L146.185,75.7423892190918L146.4973611111111,79.11476663972127L146.65354166666665,78.62085465724378L146.80972222222223,82.10050574224262L146.96590277777779,74.11897078721363L147.2782638888889,69.33004981419624L147.74680555555557,76.52604159200897L147.9029861111111,87.13696399023956L148.21534722222222,107.34884130969145L148.37152777777777,93.04397040216821L148.52770833333332,80.68504020537155L148.68388888888887,75.78702989994613L148.84006944444445,67.81354684698063L148.99625,60.51212795814361L149.15243055555555,59.90727489932665L149.3086111111111,55.76837416734868L149.7771527777778,64.61302855161769L149.93333333333334,64.88514431246885L150.24569444444447,62.53107533412438L150.55805555555557,69.92930909131323L150.71423611111112,68.07491263628614L150.87041666666664,74.51427131224044L151.02659722222222,78.37788651781301L151.33895833333332,76.9200667444687L151.49513888888887,69.75203817112174L151.65131944444443,64.19256118748343L151.8075,82.25420480458193L151.96368055555556,77.98718849910249L152.1198611111111,82.9789752647854L152.27604166666666,83.4567182671374L152.43222222222224,69.89803081023769L152.9007638888889,76.86681143403894L153.05694444444444,74.75475247677673L153.52548611111112,64.67686071381873L153.68166666666664,57.371456438616335L153.83784722222225,47.953546381582015L154.15020833333332,52.372125953389755L154.46256944444443,58.79928134875706L154.61875,45.03424305318123L154.77493055555556,46.844555059661445L154.9311111111111,50.4480619428098L155.08729166666666,56.38616434718412L155.2434722222222,54.9143676756933L155.3996527777778,55.289949512428905L155.55583333333334,71.87797030763642L155.86819444444444,76.79611529284803L156.02437500000002,79.74700228397504L156.18055555555557,81.51755323424608L156.49291666666667,69.99320100793047L156.96145833333333,84.47591947942261L157.11763888888888,84.35487541812235L157.27381944444443,71.69560369605367L157.43,67.87602955950028L157.58618055555556,66.84296367279329L157.89854166666666,72.51645147231204L158.0547222222222,74.66186555679826L158.2109027777778,77.20778322491755L158.5232638888889,83.77001069549944L158.67944444444444,77.63799343842798L158.99180555555557,75.2174616794101L159.46034722222223,72.50648278436925L159.77270833333333,74.65589372183005L159.92888888888888,74.68687106687895L160.08506944444443,80.99878480545125L160.5536111111111,70.94059979028366L160.70979166666666,59.87103066706773L161.0221527777778,67.07461307365168L161.17833333333334,70.13810267797191L161.49069444444444,68.20018878828135L161.646875,69.55477888932215L161.80305555555557,74.14353122443192L162.11541666666668,75.6381134080702L162.27159722222223,76.53486271825314L162.74013888888888,75.81425246473283L162.89631944444443,55.24322572276667L163.20868055555556,61.78060105001333L163.3648611111111,59.40968953702097L163.52104166666666,57.98715200702297L163.6772222222222,55.874960271596564L163.98958333333334,64.67698021416643L164.1457638888889,62.40618625294039L164.30194444444444,67.33704658554512L164.458125,71.55423200253556L164.77048611111113,71.5672048178747L165.08284722222223,70.31632866744803L165.39520833333336,60.755137210793905L165.55138888888888,57.53575139385919L165.70756944444443,59.380108800386125L165.86374999999998,59.22806340467221L166.01993055555553,59.13683616724384L166.64465277777776,57.82343060735923L166.80083333333334,62.070064141138744L166.9570138888889,63.359365666181446L167.11319444444445,62.87428674157694L167.58173611111113,61.3245701693867L167.73791666666668,64.1707478783552L167.89409722222223,59.58511779439591L168.05027777777778,60.609738018505624L168.20645833333336,67.51783748451442L168.51881944444443,66.62802967220685L168.67499999999998,74.90481075122044L168.83118055555553,62.249557243629795L168.9873611111111,58.43240341356069L169.29972222222221,61.176769229634615L169.61208333333335,57.78873060516359L169.7682638888889,64.56657319687908L169.92444444444445,64.85727109962568L170.080625,62.51436078421591L170.23680555555555,72.43662817402077L170.54916666666668,67.06198440665041L170.70534722222223,65.09585798585832L170.86152777777778,62.65750353815804L171.1738888888889,61.194500247335355L171.33006944444446,65.35136576475455L171.64243055555553,60.29348852623555L171.79861111111111,64.81075873209465L172.42333333333332,68.7797900730377L172.5795138888889,63.609202950835524L172.891875,70.57618566133992L173.04805555555555,69.72171717352718L173.20423611111113,62.915699371499144L173.36041666666668,57.573419472854695L173.51659722222223,58.14404980815331L173.67277777777778,57.22775879190493L173.82895833333333,51.64332606804048L174.14131944444446,62.13799031423535L174.29749999999999,63.40012137003943L174.45368055555554,62.898730786094305L174.92222222222222,67.6325733054375L175.07840277777777,62.92088226807289L175.23458333333332,63.86985654234195L175.3907638888889,63.180571889475814L175.703125,72.83633608158178L176.64020833333333,64.78446133853441L176.7963888888889,67.50534241947403L176.95256944444446,65.36187279355248L177.10875000000001,57.78246368645661L177.26493055555554,57.01080711888689L177.88965277777777,52.771824281657246L178.35819444444445,48.96977473968934L178.514375,47.94720485413873L178.8267361111111,51.10965181949619L179.29527777777778,63.07646436033376L179.45145833333333,65.22189377072094L179.76381944444447,52.66380878084483L179.92000000000002,58.97427228963521L180.07618055555554,42.62190856065041L180.2323611111111,42.87981592928779L180.54472222222222,54.36255517392601L180.70090277777777,47.406865462398L180.85708333333332,43.2334516354812L181.01326388888887,50.79872894535936L181.16944444444445,56.596555170916346L181.325625,43.712597968679376L181.48180555555555,51.08622612307569L181.6379861111111,45.4410867874827L181.79416666666665,43.31264427016214L182.10652777777779,45.81158641205249L182.26270833333334,46.05229185755661L182.57506944444447,58.783379165742474L182.88743055555557,56.352687189030874L183.0436111111111,54.894281380801345L183.35597222222222,45.208572129465466L183.66833333333332,45.690483288004344L183.82451388888887,51.01428809724311L183.98069444444445,47.91524365124343L184.136875,56.125151967469264L184.60541666666666,58.53374914455219L184.76159722222224,56.202909176316666L184.9177777777778,54.80441457317281L185.07395833333334,58.99997592540187L185.38631944444447,47.6719794784284L185.54250000000002,42.13386020546932L185.85486111111112,50.13898346514969L186.01104166666664,54.942057420957866L186.79194444444443,65.37589834341335L186.948125,57.79087901637311L187.2604861111111,51.98119820272143L187.41666666666666,53.53004782864578L187.7290277777778,49.42469949008499L187.88520833333334,43.18549221246323L188.0413888888889,38.18328925066524L188.19756944444444,46.50996229704222L188.50993055555557,52.76464472009344L188.66611111111112,48.965457624953615L188.82229166666664,44.16860693301453L189.13465277777777,41.290496517851096L189.29083333333332,54.6676327444916L189.44701388888888,66.46991275496116L189.60319444444443,60.96460734256206L190.0717361111111,56.4027642554925L190.3840972222222,58.700316517366105L190.8526388888889,60.07885725228775L191.16500000000002,45.801988595299605L191.32118055555557,43.529204110447154L191.47736111111112,47.20018215585364L191.63354166666667,53.17877663538029L191.94590277777777,61.80059143721165L192.25826388888888,46.83501972845656L192.41444444444443,40.37301513805863L192.570625,54.11714391661613L192.8829861111111,46.00095886838193L193.03916666666666,41.131247839441414L193.1953472222222,44.502757931417534L193.3515277777778,41.49098711689291L193.50770833333334,39.68391525038072L193.97625,42.37568916055355L194.13243055555557,50.28408083820021L194.28861111111112,51.25311757030292L195.06951388888888,54.351878044419706L195.22569444444443,51.176466836976914L195.38187499999998,44.23654324280099L195.53805555555556,45.107265956005676L195.85041666666666,46.88836880135611L196.0065972222222,44.1810322340811L196.1627777777778,48.84994824746158L196.31895833333334,51.65129785548987L196.4751388888889,53.3321076203069L197.25604166666668,54.340593479197054L197.41222222222223,41.10036111401763L197.56840277777775,38.19087980902543L197.72458333333336,41.47986789574037L197.88076388888888,49.7465880793123L198.03694444444443,45.89596380085476L198.34930555555556,43.58557047818542L198.5054861111111,39.68201480532355L198.66166666666666,42.374548893519204L198.8178472222222,46.507398403494335L198.97402777777776,50.24576794910952L199.13020833333334,48.712800779790825L199.2863888888889,49.05168969562719L199.44256944444444,49.25502304512902L199.59875,41.82501712806206L199.91111111111113,39.88434263487963L200.06729166666668,43.75461480868046L200.22347222222223,36.007443129135254L200.37965277777778,31.359130743610706L200.53583333333336,37.380809078694085L200.69201388888888,47.287143411287076L200.84819444444443,53.23095338864036L201.16055555555553,41.6932368993138L201.47291666666666,39.80526511983322L201.78527777777776,36.15516237288463L201.94145833333334,33.965100724715484L202.0976388888889,30.13373467875627L202.41,39.16290987463654L202.72236111111113,38.2870782828243L202.87854166666668,40.27891776259213L203.19090277777778,41.474021450452796L203.5032638888889,38.415085388683934L203.65944444444443,47.90771857507846L203.81562499999998,37.24063617154653L204.1279861111111,40.90972171325305L204.59652777777777,44.369832877907044L204.75270833333335,41.41122270698921L205.22125,39.63606598223592L205.53361111111113,41.08831976003657L206.00215277777778,39.44232421406434L206.47069444444446,47.265392652879086L206.62687499999998,39.372579053082006L206.78305555555553,37.154210572464024L206.93923611111111,42.11652619343366L207.09541666666667,42.576586508957746L207.25159722222222,42.8526226982722L207.40777777777777,46.79424268634611L207.56395833333332,42.86589672544494L207.7201388888889,40.508889148904274L207.87631944444445,44.12933333929777L208.18868055555555,46.301609231331355L208.34486111111113,47.60496538875404L208.50104166666668,52.162986735490364L208.96958333333333,39.79379706779363L209.1257638888889,52.510943857029545L209.43812499999999,48.81323710711527L209.59430555555554,47.85328227459428L209.7504861111111,39.725303448313696L209.90666666666667,42.40052207931336L210.21902777777777,37.712316548572716L210.68756944444445,39.93406072204115L210.84375,45.04310550060754L210.99993055555555,46.8498725281172L211.1561111111111,40.381926817855L211.31229166666668,44.05315594066823L211.46847222222223,39.96256608281317L211.62465277777778,31.21488483655719L211.78083333333333,33.51826325997672L211.9370138888889,43.71096545822397L212.09319444444446,42.27459022820179L212.24937500000001,45.18875398687629L212.40555555555554,45.678592402450874L212.5617361111111,43.45516639473789L212.71791666666667,34.569104863342176L213.03027777777777,35.530795276047655L213.18645833333332,32.33181124918576L213.34263888888887,40.48175581689421L213.49881944444445,34.04372773406351L215.06062500000002,38.99157665076322L215.52916666666667,45.73627489747085L215.68534722222222,47.265764788437764L215.84152777777777,39.372792956619776L215.99770833333332,49.74100295547005L216.31006944444445,60.996605824490516L216.46625,50.128626635309104L216.62243055555555,44.86650833922786L216.7786111111111,44.22657579643425L216.93479166666665,43.8426162707581L217.24715277777779,42.3535900935197L217.40333333333334,42.718824849009366L217.5595138888889,40.420646023042934L217.71569444444447,35.2657216973829L217.87187500000002,38.46610381132726L218.02805555555557,46.67966041123688L218.1842361111111,46.57313625706723L218.34041666666664,42.733214112282724L218.49659722222222,41.687920665042185L218.65277777777777,41.060763352292696L218.80895833333332,43.20179802170071L219.12131944444445,38.19308211400511L219.2775,35.18785256938776L219.5898611111111,42.195380609015444L219.74604166666666,35.07190260933626L219.90222222222224,42.12581063298458L220.21458333333334,35.03015124592034L220.3707638888889,29.51409577405164L220.52694444444447,29.9804607654157L220.68312500000002,35.29494725214698L220.83930555555557,44.7769664757287L220.99548611111112,37.879504591196905L221.62020833333332,33.74103683827528L221.93256944444443,32.51662540394986L222.4011111111111,33.04064776078218L222.55729166666666,37.13105944936686L222.8696527777778,40.8439756799452L223.02583333333334,35.519719491524285L223.1820138888889,39.87716232744222L223.49437500000002,39.974308349732695L223.65055555555557,42.54992502016472L223.80673611111112,40.31928737014121L223.96291666666664,42.75691243240985L224.11909722222225,36.667490920800475L224.27527777777777,40.56583456280538L224.43145833333332,42.904840748008326L224.58763888888888,49.34290257324554L224.74381944444443,44.39507390198966L225.2123611111111,41.42639545483112L225.36854166666666,35.869180734253206L225.5247222222222,28.75885362742119L225.83708333333334,33.303304374125275L225.9932638888889,34.77130560472011L226.14944444444444,38.169454155729625L226.30562500000002,35.17367579442248L226.46180555555557,34.63487799506578L226.9303472222222,31.794260880596568L227.08652777777777,43.93521449242857L227.24270833333333,49.96112681989763L227.39888888888888,39.73135971366301L227.55506944444443,37.36948834661007L227.71125,32.176367251893026L227.86743055555556,31.577823652120486L228.17979166666666,34.99470514453972L228.3359722222222,30.751497330650835L228.4921527777778,37.01622903091817L228.64833333333334,30.70574244505036L228.8045138888889,35.730125637725195L228.96069444444444,38.74474617553267L229.116875,39.29483990299215L229.27305555555557,42.14224395212045L229.74159722222223,38.81601888968456L229.8977777777778,34.30294541736785L230.21013888888888,44.18176537486127L230.8348611111111,47.59172829229959L230.99104166666666,40.82704027636444L231.3034027777778,38.026896684230906L231.45958333333334,31.31214303703794L231.928125,34.83529677549018L232.24048611111112,39.46651807561918L232.39666666666668,30.91723727664595L232.55284722222223,37.115682376312634L232.86520833333336,38.317401623460086L233.02138888888888,37.77979208771336L233.17756944444443,34.939878553612715L233.33374999999998,33.23593043315233L233.6461111111111,27.1789034467607L233.80229166666666,28.579345369041107L233.9584722222222,42.006265185495295L234.11465277777776,39.99309146933956L234.27083333333334,43.819864109356445L234.58319444444444,37.305252549171L234.739375,39.68982232240015L234.89555555555557,46.15523167825049L235.20791666666668,47.51714823470297L235.36409722222223,33.230286315038484L235.83263888888888,25.916847758464826L236.14499999999998,22.787435086353298L236.30118055555553,28.46179340985435L236.61354166666666,26.83175028983959L236.7697222222222,24.5950364448083L236.92590277777776,37.09835077389792L237.08208333333334,37.04836157797604L237.2382638888889,43.3116860141684L237.39444444444445,48.32834051551396L237.550625,43.78633666735075L238.01916666666668,43.57845403771307L238.17534722222223,35.90174666655486L238.33152777777778,35.07172051834519L238.48770833333336,34.57370482941937L238.6438888888889,24.205551054440747L238.80006944444443,30.57132283033698L238.95624999999998,31.873466216614503L239.2686111111111,31.39607365315598L239.42479166666666,29.8509782754507L239.58097222222221,38.99325603265328L239.73715277777777,43.21995346954722L239.89333333333335,40.72130443977068L240.0495138888889,35.446116747419524L240.51805555555555,37.31569037951655L240.83041666666668,38.43742518097733L240.98659722222223,37.8518062222237L241.14277777777778,33.72441781689136L241.29895833333333,31.247994151489365L241.4551388888889,31.020799791878318L241.61131944444446,34.660490828394416L241.76749999999998,45.65496183890474L241.92368055555553,44.69964789624038L242.07986111111111,39.091792038728926L242.23604166666667,33.20974946716436L242.70458333333332,41.008528125478875L242.8607638888889,41.91178766818487L243.32930555555555,46.22974166829371L243.48548611111113,42.52717735901862L243.79784722222223,25.20164567551248L243.95402777777778,21.09966337474924L244.11020833333333,24.931801325834243L244.42256944444446,28.48974393611539L244.57874999999999,34.400517154566785L244.73493055555554,35.42964265078243L245.04729166666667,32.27111967402661L245.20347222222222,31.634675105400646L245.35965277777777,40.06347413062315L245.6720138888889,36.31007840156113L245.82819444444445,37.83405799420407L245.984375,42.52444402427511L246.2967361111111,34.01067144106449L246.45291666666668,44.00639161128177L246.60909722222223,42.451827164441596L246.92145833333333,42.77776709156251L247.0776388888889,34.16267465923437L247.39000000000001,32.7696080965253L247.54618055555554,29.416439101842144L247.7023611111111,23.62853943054705L247.85854166666667,34.00113288608088L248.01472222222222,32.67268303263319L248.17090277777777,29.358284063506915L248.48326388888887,34.9216412310017L248.63944444444445,33.224988039585696L249.1079861111111,28.430997850250833L249.42034722222223,25.554603736649938L249.88888888888889,27.60476554297466L250.5136111111111,33.86953011868235L251.29451388888887,43.92171619564991L251.76305555555555,39.88370223580219L251.9192361111111,37.46089385989356L252.07541666666665,33.489879777290696L252.23159722222223,31.10726194993157L252.38777777777779,34.712368123226355L252.54395833333334,35.61677198757309L252.85631944444447,41.194063042499096L253.01250000000002,38.247110343911714L253.3248611111111,30.185611393216305L253.48104166666664,40.45270512074018L253.79340277777777,31.508968259313377L253.94958333333332,33.694732069225324L254.10576388888887,31.230173325092352L254.26194444444445,32.26877651346763L254.57430555555555,34.150598266122955L254.7304861111111,31.503693043230925L254.88666666666666,33.69153880618353L255.04284722222224,24.934920657926853L255.1990277777778,19.680949768972795L255.35520833333334,22.82190394494083L255.5113888888889,25.9651456679492L255.66756944444447,27.851090701754202L255.82375000000002,28.982657722037203L256.1361111111111,34.69626542611985L256.4484722222222,29.313773659968774L256.6046527777778,32.377596554023654L256.9170138888889,36.733228725311704L257.3855555555556,33.05327131874415L257.69791666666663,33.36262593186132L258.3226388888889,29.772259180841246L258.4788194444444,27.618020374634256L258.635,33.87749239547554L258.79118055555557,38.89183544761042L259.25972222222225,29.313777238007958L259.4159027777778,31.118929483419635L259.57208333333335,35.97802848294933L260.04062500000003,31.3414819558991L260.19680555555556,41.14622745834987L260.50916666666666,38.21840899342217L260.6653472222222,32.68571963998028L260.82152777777776,35.659442737255546L261.29006944444444,32.40900910370789L261.44625,30.458739545781867L261.91479166666664,34.32323592514163L262.0709722222222,29.089955959381854L262.2271527777778,23.43264954507086L262.3833333333333,27.590262245454795L262.5395138888889,31.343489705315278L262.6956944444444,31.078097124173865L262.851875,32.17753079291663L263.1642361111111,31.578521776734647L263.3204166666667,29.96044714959791L263.4765972222222,28.989602373315904L263.6327777777778,32.18309378203193L263.7889583333333,32.8405287876314L263.9451388888889,40.78698633996166L264.1013194444444,30.450867773418707L264.2575,29.28385474760836L264.4136805555556,36.135652858890126L265.0384027777778,41.505400943086755L265.3507638888889,37.17524386683672" style="fill: none;" fill="none"></path></g></g></g></g><g opacity="0.2"><g><g><g><path stroke="rgb(255, 112, 67)" stroke-width="2px" d="M34.203541666666666,194.30665485064188L34.359722222222224,175.42666347821554L34.67208333333333,172.2799904346466L34.98444444444444,184.8666708866755L35.140625,169.1333408355713L35.921527777777776,169.13331739107767L36.077708333333334,200.59998921553296L36.233888888888885,175.42666347821554L36.39006944444444,128.22666160265604L36.54625,169.1333408355713L36.85861111111112,156.54667210578918L37.327152777777776,147.10667641957602L37.483333333333334,137.6666572888692L37.79569444444444,147.1066529750824L37.951875,150.25332601865134L38.10805555555556,134.52000768979389L38.26423611111111,140.81333033243814L38.57659722222222,184.86664744218191L38.888958333333335,137.6666572888692L39.04513888888889,137.6666572888692L39.51368055555555,140.81330688794452L39.66986111111111,140.81333033243814L39.82604166666667,134.5199842453003L39.98222222222222,112.49331982930501L40.13840277777778,156.54667210578918L40.60694444444444,150.25332601865134L40.763124999999995,143.96000337600708L41.07548611111111,172.2799904346466L41.23166666666667,150.25332601865134L41.38784722222222,162.83999474843344L41.54402777777778,115.64001631736755L41.700208333333336,125.07998855908711L41.85638888888889,137.6666572888692L42.012569444444445,131.37333464622498L42.324930555555554,156.54667210578918L42.48111111111111,140.81333033243814L42.63729166666667,153.39997561772665L42.79347222222223,118.78666591644287L43.10583333333333,140.81335377693176L43.418194444444445,147.1066529750824L43.574374999999996,137.6666572888692L43.88673611111111,134.5199842453003L44.04291666666667,147.10667641957602L44.35527777777777,150.25332601865134L44.51145833333333,131.37333464622498L44.66763888888889,118.78668936093648L44.823819444444446,125.07998855908711L44.980000000000004,121.9333389600118L45.136180555555555,109.34664678573608L45.448541666666664,131.37333464622498L45.60472222222222,125.07998855908711L45.76090277777777,109.34667023022969L45.91708333333333,150.25332601865134L46.697986111111106,125.07998855908711L46.854166666666664,87.3199823697408L47.16652777777778,153.39999906222025L47.47888888888889,125.07998855908711L47.63506944444445,118.78666591644287L47.791250000000005,112.49331982930501L48.259791666666665,156.54667210578918L48.88451388888889,125.07998855908711L49.35305555555556,103.05332414309183L49.665416666666665,118.78666591644287L49.82159722222222,143.96000337600708L49.97777777777778,137.6666572888692L50.6025,118.78666591644287L50.75868055555556,115.64001631736755L50.91486111111111,121.9333389600118L51.071041666666666,143.96000337600708L51.38340277777778,118.78668936093648L51.53958333333333,103.05332414309183L52.008125,115.64001631736755L52.47666666666667,109.34667023022969L52.632847222222225,115.64001631736755L52.94520833333333,112.49331982930501L53.25756944444444,99.90667454401651L53.41375,121.9333389600118L53.56993055555556,118.78666591644287L53.726111111111116,118.78666591644287L53.88229166666667,112.49331982930501L54.03847222222222,90.4666319688161L54.350833333333334,128.22663815816242L54.50701388888889,115.64001631736755L54.66319444444444,112.49331982930501L54.819375,99.90667454401651L55.13173611111112,125.07998855908711L55.28791666666666,128.22666160265604L55.44409722222222,103.05334758758545L55.756458333333335,99.90667454401651L55.91263888888889,109.34667023022969L56.06881944444444,131.37331120173135L56.38118055555555,84.17333277066548L56.53736111111111,74.73333708445229L56.84972222222222,118.78666591644287L57.00590277777778,106.19999718666077L57.31826388888889,112.49331982930501L57.47444444444445,77.88001012802124L57.630624999999995,112.49331982930501L57.94298611111111,121.9333389600118L58.567708333333336,115.64001631736755L58.723888888888894,115.63996942838033L58.880069444444445,115.64001631736755L59.036249999999995,128.22666160265604L59.34861111111111,115.64001631736755L59.50479166666667,106.19999718666077L59.81715277777778,81.02665972709656L60.12951388888889,74.73333708445229L60.285694444444445,74.73333708445229L60.441874999999996,77.88001012802124L60.598055555555554,106.19997374216715L60.91041666666667,93.61330501238504L61.06659722222223,131.37333464622498L62.15986111111111,93.61330501238504L62.78458333333333,99.90667454401651L63.253125000000004,93.61335190137227L63.409305555555555,96.76000150044759L63.56548611111111,106.19999718666077L63.721666666666664,109.34664678573608L64.3463888888889,112.49331982930501L64.50256944444445,115.64001631736755L64.65875,93.61330501238504L64.81493055555556,118.78666591644287L65.28347222222222,121.9333389600118L65.43965277777778,115.64001631736755L65.59583333333333,81.02665972709656L65.7520138888889,103.05332414309183L65.90819444444445,84.17333277066548L66.064375,93.61330501238504L66.37673611111111,112.49331982930501L66.53291666666667,77.88001012802124L66.68909722222222,99.9066510995229L67.00145833333333,143.96000337600708L67.1576388888889,52.70669611295064L67.31381944444445,106.19999718666077L67.47,81.02665972709656L67.62618055555555,96.76000150044759L67.78236111111111,96.7600249449412L68.25090277777778,87.31995892524719L68.40708333333333,81.02668317159016L68.71944444444445,77.88001012802124L69.34416666666667,96.76000150044759L69.50034722222223,74.73333708445229L69.81270833333333,103.05334758758545L69.96888888888888,99.90669798851013L70.12506944444445,84.17333277066548L70.28125,68.44003788630165L70.43743055555555,96.76000150044759L70.59361111111112,68.43996755282083L71.06215277777777,109.34667023022969L71.53069444444444,84.17333277066548L71.686875,71.58666404088336L71.84305555555555,106.19999718666077L71.99923611111112,84.17333277066548L72.31159722222223,99.90667454401651L72.93631944444444,96.76000150044759L73.24868055555555,77.8799866835276L73.56104166666667,96.76000150044759L73.71722222222223,58.99999531110127L73.87340277777778,128.22666160265604L74.02958333333332,109.34664678573608L74.18576388888889,84.17333277066548L74.498125,96.76000150044759L74.65430555555555,93.61335190137227L74.96666666666667,93.61335190137227L75.27902777777778,71.58666404088336L75.59138888888889,90.46670230229695L76.37229166666667,93.61335190137227L76.68465277777779,84.17330932617188L76.84083333333332,74.73331363995868L77.15319444444444,87.3199823697408L77.309375,96.7600249449412L77.46555555555555,106.19999718666077L77.6217361111111,99.90667454401651L77.77791666666667,87.3199823697408L77.93409722222222,77.8799866835276L78.09027777777779,96.76000150044759L78.24645833333334,99.90667454401651L78.40263888888889,115.64001631736755L78.55881944444444,93.61330501238504L79.18354166666667,99.90667454401651L79.33972222222222,96.76000150044759L79.65208333333334,77.8799866835276L80.12062499999999,84.17333277066548L80.74534722222222,81.02668317159016L80.90152777777779,93.61335190137227L81.05770833333334,81.02665972709656L81.21388888888887,103.05334758758545L81.52624999999999,93.61330501238504L81.68243055555556,71.58666404088336L81.8386111111111,106.19999718666077L81.99479166666667,90.4666319688161L82.15097222222222,125.07998855908711L82.30715277777779,112.49331982930501L82.77569444444444,74.73333708445229L82.93187499999999,99.90669798851013L83.2442361111111,96.7600249449412L83.55659722222222,96.75995461146036L83.86895833333334,68.44003788630165L84.18131944444445,109.34667023022969L84.49368055555556,109.34664678573608L84.64986111111111,112.49331982930501L84.80604166666667,77.8799866835276L84.96222222222222,62.1466683546702L85.11840277777777,112.49331982930501L85.27458333333334,103.05334758758545L85.43076388888889,77.8799866835276L85.58694444444446,96.76000150044759L85.74312499999999,96.76000150044759L86.05548611111111,115.63996942838033L86.36784722222222,90.4666319688161L86.52402777777777,84.17330932617188L86.83638888888889,84.17333277066548L87.14874999999999,93.61335190137227L87.30493055555554,112.49331982930501L87.46111111111111,65.29336484273273L87.61729166666666,62.14664491017659L87.77347222222222,96.76000150044759L87.92965277777778,96.7600249449412L88.08583333333334,99.90667454401651L88.24201388888889,96.76000150044759L88.39819444444446,96.7600249449412L88.55437500000001,90.46665541330972L88.71055555555554,77.8799866835276L89.02291666666666,77.8799866835276L89.17909722222223,87.3199823697408L89.49145833333334,77.88001012802124L89.80381944444444,81.02665972709656L89.96000000000001,90.46665541330972L90.11618055555554,99.90667454401651L90.27236111111111,81.02668317159016L90.42854166666666,96.7600249449412L90.74090277777778,84.17333277066548L90.89708333333333,103.05334758758545L91.20944444444444,87.32002925872803L91.36562500000001,58.99999531110127L91.52180555555555,99.90667454401651L91.67798611111111,90.4666319688161L91.83416666666666,90.46665541330972L92.14652777777778,49.55999962488809L92.30270833333333,109.34667023022969L92.4588888888889,93.61330501238504L92.61506944444444,84.17333277066548L93.39597222222221,115.64001631736755L93.55215277777778,99.90667454401651L94.02069444444444,93.61330501238504L94.17687500000001,121.9333389600118L94.48923611111113,109.34664678573608L94.64541666666666,99.90667454401651L94.95777777777778,118.78666591644287L95.2701388888889,106.19997374216715L96.05104166666666,81.02665972709656L96.20722222222221,103.05332414309183L96.6757638888889,87.32002925872803L96.83194444444445,81.02665972709656L96.988125,99.90667454401651L97.14430555555556,99.90667454401651L97.30048611111111,90.46665541330972L97.45666666666666,99.90667454401651L97.76902777777778,112.49331982930501L98.0813888888889,93.61335190137227L98.39375,68.44003788630165L98.70611111111111,93.61335190137227L99.17465277777778,68.44001444180805L99.33083333333333,93.61330501238504L99.799375,81.02668317159016L99.95555555555556,112.49331982930501L100.11173611111111,71.58666404088336L100.26791666666668,81.02665972709656L100.58027777777777,87.32002925872803L100.73645833333333,87.32002925872803L101.205,93.61330501238504L101.36118055555556,68.44001444180805L101.67354166666668,93.61330501238504L102.14208333333333,103.05334758758545L102.610625,87.3199823697408L102.76680555555556,96.76000150044759L102.92298611111111,71.58666404088336L103.07916666666667,74.73333708445229L103.23534722222223,103.05332414309183L103.54770833333333,74.73333708445229L103.70388888888888,71.58666404088336L103.86006944444445,71.58668748537697L104.01625,81.02668317159016L104.17243055555556,74.73333708445229L104.32861111111112,87.3199823697408L104.48479166666667,93.61330501238504L104.79715277777777,103.05332414309183L105.10951388888888,68.44001444180805L105.26569444444445,71.58666404088336L105.73423611111112,81.02665972709656L105.89041666666667,77.88001012802124L106.51513888888888,71.58666404088336L106.98368055555555,52.70667266845703L107.13986111111112,93.61335190137227L107.45222222222223,93.61335190137227L107.60840277777777,96.76000150044759L107.92076388888889,77.8799866835276L108.07694444444444,93.61330501238504L108.233125,84.17330932617188L108.70166666666667,93.61335190137227L108.85784722222223,58.99999531110127L109.17020833333332,74.73333708445229L109.79493055555555,77.8799866835276L110.26347222222223,93.61330501238504L110.41965277777778,81.02665972709656L110.57583333333332,68.44001444180805L110.73201388888889,81.02668317159016L110.88819444444444,81.02665972709656L111.044375,74.73333708445229L111.20055555555555,58.99999531110127L111.51291666666667,147.1066529750824L111.66909722222222,96.76000150044759L111.82527777777779,77.8799866835276L111.98145833333332,103.05334758758545L112.13763888888889,81.02668317159016L112.29381944444444,90.46665541330972L112.45,84.17333277066548L113.07472222222222,81.02668317159016L113.23090277777779,109.34664678573608L114.1679861111111,103.05332414309183L114.48034722222222,93.61330501238504L114.63652777777779,81.02668317159016L114.79270833333334,106.19997374216715L114.9488888888889,106.19999718666077L115.10506944444444,77.88001012802124L115.26124999999999,71.58666404088336L115.41743055555555,96.76000150044759L115.5736111111111,65.29331795374551L115.72979166666667,84.17333277066548L115.88597222222222,81.02668317159016L116.04215277777779,65.29331795374551L116.19833333333334,74.73333708445229L116.35451388888887,74.73333708445229L116.51069444444444,90.46665541330972L116.66687499999999,65.29331795374551L116.82305555555556,90.46665541330972L116.9792361111111,84.17333277066548L117.29159722222222,87.32002925872803L117.44777777777779,74.73333708445229L117.60395833333334,71.58668748537697L117.91631944444444,87.3199823697408L118.22868055555556,71.58666404088336L118.54104166666667,68.44001444180805L118.69722222222222,109.34664678573608L119.16576388888889,84.17333277066548L119.32194444444445,90.46665541330972L119.47812499999999,109.34664678573608L119.79048611111111,90.46665541330972L119.94666666666667,81.02665972709656L120.10284722222222,99.9066510995229L120.41520833333334,84.17330932617188L120.72756944444446,103.05332414309183L120.88374999999999,68.44001444180805L121.19611111111111,62.1466683546702L121.35229166666666,96.76000150044759L121.50847222222222,55.85332226753235L121.66465277777777,81.02668317159016L121.82083333333334,90.46665541330972L121.97701388888889,65.29336484273273L122.13319444444446,65.29331795374551L122.28937499999999,84.17333277066548L122.44555555555554,93.61335190137227L122.75791666666666,62.1466683546702L122.91409722222222,49.560023069381714L123.07027777777778,77.8799866835276L123.53881944444446,74.73333708445229L123.69500000000001,84.17333277066548L123.85118055555554,81.02668317159016L124.16354166666666,68.44001444180805L124.31972222222223,55.85332226753235L124.47590277777778,81.02668317159016L124.63208333333334,65.29336484273273L124.94444444444444,58.99999531110127L125.25680555555554,68.44001444180805L125.41298611111111,65.29331795374551L125.56916666666666,62.1466683546702L125.88152777777778,81.02665972709656L126.19388888888889,84.17333277066548L126.50625000000001,96.76000150044759L126.66243055555555,84.17330932617188L126.81861111111111,81.02665972709656L127.28715277777778,65.29329450925191L127.91187500000001,84.17333277066548L128.06805555555556,90.46665541330972L128.2242361111111,65.29331795374551L128.38041666666666,81.02665972709656L128.5365972222222,81.02668317159016L128.84895833333331,87.3199823697408L129.0051388888889,84.17330932617188L129.47368055555555,52.70664922396341L129.62986111111113,74.73333708445229L129.94222222222223,62.14664491017659L130.25458333333333,84.17337965965271L130.41076388888888,40.12002738316852L130.87930555555556,68.44001444180805L131.19166666666666,81.02665972709656L131.3478472222222,65.29331795374551L131.5040277777778,52.70667266845703L131.8163888888889,90.46665541330972L131.97256944444445,49.55999962488809L132.12875,74.73333708445229L132.28493055555555,49.560023069381714L132.4411111111111,90.46665541330972L132.59729166666668,65.29331795374551L132.75347222222223,65.29336484273273L132.90965277777778,106.19999718666077L133.06583333333333,87.32002925872803L133.69055555555556,71.58666404088336L133.8467361111111,62.1466683546702L134.15909722222221,81.02665972709656L134.47145833333335,81.02663628260292L134.6276388888889,74.73333708445229L134.78381944444445,65.29331795374551L134.94,81.02665972709656L135.09618055555555,65.29331795374551L135.2523611111111,77.88001012802124L135.40854166666668,87.3199823697408L135.56472222222223,55.85332226753235L135.72090277777778,71.58666404088336L136.03326388888888,62.14664491017659L136.18944444444446,68.43996755282083L136.34562499999998,87.3199823697408L136.50180555555556,71.58668748537697L136.65798611111111,103.05334758758545L136.97034722222222,68.44001444180805L137.12652777777777,52.70667266845703L137.28270833333335,43.26667698224384L137.59506944444445,59.00001875559488L137.75125,81.02668317159016L137.90743055555555,81.02665972709656L138.0636111111111,68.44003788630165L138.21979166666665,58.99999531110127L138.37597222222223,77.88001012802124L138.53215277777778,62.14664491017659L138.68833333333333,90.46665541330972L138.84451388888888,74.73333708445229L139.31305555555556,65.29331795374551L139.62541666666667,84.17330932617188L139.93777777777777,68.44001444180805L140.40631944444445,93.61335190137227L140.5625,65.29331795374551L140.71868055555555,71.58666404088336L140.8748611111111,74.73333708445229L141.03104166666668,58.99999531110127L141.18722222222223,65.29336484273273L141.34340277777778,71.58668748537697L141.49958333333333,81.02665972709656L141.6557638888889,87.3199823697408L141.81194444444446,71.58666404088336L141.96812500000001,65.29336484273273L142.12430555555554,62.14664491017659L142.2804861111111,87.3199823697408L142.74902777777777,68.43996755282083L142.90520833333332,52.70667266845703L143.37375,62.1466683546702L143.52993055555555,62.1466683546702L143.84229166666668,74.73333708445229L143.99847222222223,77.8799866835276L144.15465277777778,81.02668317159016L144.31083333333333,55.853345712025956L144.46701388888889,96.7600249449412L144.62319444444447,46.413350025812775L145.0917361111111,52.70667266845703L145.24791666666667,58.99999531110127L145.40409722222222,81.02665972709656L146.02881944444445,46.413350025812775L146.185,99.9066510995229L146.4973611111111,84.17333277066548L146.65354166666665,77.8799866835276L146.80972222222223,87.3199823697408L146.96590277777779,62.1466683546702L147.2782638888889,62.1466683546702L147.74680555555557,87.32002925872803L147.9029861111111,103.05334758758545L148.21534722222222,137.6666572888692L148.37152777777777,71.58666404088336L148.52770833333332,62.14664491017659L148.68388888888887,68.44001444180805L148.84006944444445,55.85332226753235L148.99625,49.55999962488809L149.15243055555555,58.99999531110127L149.3086111111111,49.560023069381714L149.7771527777778,77.88001012802124L149.93333333333334,65.29331795374551L150.24569444444447,58.999971866607666L150.55805555555557,81.02665972709656L150.71423611111112,65.29331795374551L150.87041666666664,84.17330932617188L151.02659722222222,84.17330932617188L151.33895833333332,74.73333708445229L151.49513888888887,58.99999531110127L151.65131944444443,55.853345712025956L151.8075,109.34667023022969L151.96368055555556,71.58666404088336L152.1198611111111,90.46665541330972L152.27604166666666,84.17333277066548L152.43222222222224,49.55999962488809L152.9007638888889,87.3199823697408L153.05694444444444,71.58666404088336L153.52548611111112,49.560023069381714L153.68166666666664,46.413350025812775L153.83784722222225,33.82668129603067L154.15020833333332,58.99999531110127L154.46256944444443,68.44001444180805L154.61875,24.386685609817505L154.77493055555556,49.560023069381714L154.9311111111111,55.85332226753235L155.08729166666666,65.29331795374551L155.2434722222222,52.70667266845703L155.3996527777778,55.85332226753235L155.55583333333334,96.76000150044759L155.86819444444444,84.17333277066548L156.02437500000002,84.17333277066548L156.18055555555557,84.17337965965271L156.49291666666667,52.70667266845703L156.96145833333333,106.19999718666077L157.11763888888888,84.17330932617188L157.27381944444443,52.70669611295064L157.43,62.1466683546702L157.58618055555556,65.29336484273273L157.89854166666666,81.02668317159016L158.0547222222222,77.8799866835276L158.2109027777778,81.02665972709656L158.5232638888889,93.61335190137227L158.67944444444444,68.43996755282083L158.99180555555557,71.58666404088336L159.46034722222223,68.44001444180805L159.77270833333333,77.88001012802124L159.92888888888888,74.73333708445229L160.08506944444443,90.46665541330972L160.5536111111111,55.85332226753235L160.70979166666666,43.26667698224384L161.0221527777778,77.8799866835276L161.17833333333334,74.73333708445229L161.49069444444444,65.29331795374551L161.646875,71.58666404088336L161.80305555555557,81.02665972709656L162.11541666666668,77.8799866835276L162.27159722222223,77.8799866835276L162.74013888888888,74.73333708445229L162.89631944444443,24.386685609817505L163.20868055555556,71.58666404088336L163.3648611111111,55.85332226753235L163.52104166666666,55.853345712025956L163.6772222222222,52.70667266845703L163.98958333333334,77.88001012802124L164.1457638888889,58.99999531110127L164.30194444444444,74.73333708445229L164.458125,77.88001012802124L164.77048611111113,71.58666404088336L165.08284722222223,68.44001444180805L165.39520833333336,46.413350025812775L165.55138888888888,52.70667266845703L165.70756944444443,62.14664491017659L165.86374999999998,58.99999531110127L166.01993055555553,58.99999531110127L166.64465277777776,55.85332226753235L166.80083333333334,68.44001444180805L166.9570138888889,65.29331795374551L167.11319444444445,62.1466683546702L167.58173611111113,58.99999531110127L167.73791666666668,68.44001444180805L167.89409722222223,52.70667266845703L168.05027777777778,62.1466683546702L168.20645833333336,77.8799866835276L168.51881944444443,65.29331795374551L168.67499999999998,87.3199823697408L168.83118055555553,43.26667698224384L168.9873611111111,52.70667266845703L169.29972222222221,65.29331795374551L169.61208333333335,52.70667266845703L169.7682638888889,74.73333708445229L169.92444444444445,65.29331795374551L170.080625,58.99999531110127L170.23680555555555,87.32002925872803L170.54916666666668,59.00001875559488L170.70534722222223,62.1466683546702L170.86152777777778,58.999971866607666L171.1738888888889,58.99999531110127L171.33006944444446,71.58666404088336L171.64243055555553,52.70667266845703L171.79861111111111,71.58666404088336L172.42333333333332,74.73333708445229L172.5795138888889,55.85332226753235L172.891875,81.02665972709656L173.04805555555555,68.44001444180805L173.20423611111113,52.70667266845703L173.36041666666668,49.55999962488809L173.51659722222223,58.99999531110127L173.67277777777778,55.85332226753235L173.82895833333333,43.26667698224384L174.14131944444446,77.8799866835276L174.29749999999999,65.29331795374551L174.45368055555554,62.14664491017659L174.92222222222222,74.73333708445229L175.07840277777777,55.853345712025956L175.23458333333332,65.29331795374551L175.3907638888889,62.14664491017659L175.703125,87.3199823697408L176.64020833333333,52.70664922396341L176.7963888888889,71.58666404088336L176.95256944444446,62.1466683546702L177.10875000000001,46.413350025812775L177.26493055555554,55.85332226753235L177.88965277777777,46.413350025812775L178.35819444444445,43.26670042673746L178.514375,46.413350025812775L178.8267361111111,55.85332226753235L179.29527777777778,81.02668317159016L179.45145833333333,68.44003788630165L179.76381944444447,33.82668129603067L179.92000000000002,68.43996755282083L180.07618055555554,18.09336296717325L180.2323611111111,43.26667698224384L180.54472222222222,71.58666404088336L180.70090277777777,36.97333089510599L180.85708333333332,36.97333089510599L181.01326388888887,62.14664491017659L181.16944444444445,65.29329450925191L181.325625,24.386662165323884L181.48180555555555,62.1466683546702L181.6379861111111,36.9733777840932L181.79416666666665,40.119980494181306L182.10652777777779,49.55999962488809L182.26270833333334,46.413350025812775L182.57506944444447,77.88001012802124L182.88743055555557,52.70664922396341L183.0436111111111,52.70667266845703L183.35597222222222,30.680008252461732L183.66833333333332,46.413350025812775L183.82451388888887,58.99999531110127L183.98069444444445,43.26667698224384L184.136875,68.44001444180805L184.60541666666666,62.14664491017659L184.76159722222224,52.70664922396341L184.9177777777778,52.70667266845703L185.07395833333334,65.29331795374551L185.38631944444447,30.67998480796814L185.54250000000002,33.82668129603067L185.85486111111112,62.1466683546702L186.01104166666664,62.1466683546702L186.79194444444443,81.02665972709656L186.948125,46.413350025812775L187.2604861111111,43.26667698224384L187.41666666666666,55.85332226753235L187.7290277777778,43.26667698224384L187.88520833333334,33.82668129603067L188.0413888888889,30.67998480796814L188.19756944444444,58.999971866607666L188.50993055555557,62.1466683546702L188.66611111111112,43.26667698224384L188.82229166666664,36.97333089510599L189.13465277777777,36.97333089510599L189.29083333333332,74.73333708445229L189.44701388888888,84.17333277066548L189.60319444444443,52.70664922396341L190.0717361111111,49.55999962488809L190.3840972222222,62.14664491017659L190.8526388888889,62.1466683546702L191.16500000000002,24.386685609817505L191.32118055555557,40.12002738316852L191.47736111111112,52.70664922396341L191.63354166666667,62.1466683546702L191.94590277777777,74.73331363995868L192.25826388888888,24.386662165323884L192.41444444444443,30.680008252461732L192.570625,74.73333708445229L192.8829861111111,33.82668129603067L193.03916666666666,33.82668129603067L193.1953472222222,49.560023069381714L193.3515277777778,36.97333089510599L193.50770833333334,36.97330745061237L193.97625,46.413350025812775L194.13243055555557,62.1466683546702L194.28861111111112,52.70667266845703L195.06951388888888,59.00001875559488L195.22569444444443,46.413350025812775L195.38187499999998,33.82665785153705L195.53805555555556,46.413350025812775L195.85041666666666,49.560023069381714L196.0065972222222,40.12002738316852L196.1627777777778,55.85332226753235L196.31895833333334,55.85332226753235L196.4751388888889,55.85332226753235L197.25604166666668,55.85332226753235L197.41222222222223,21.240012566248566L197.56840277777775,33.82665785153705L197.72458333333336,46.413350025812775L197.88076388888888,62.1466683546702L198.03694444444443,40.12002738316852L198.34930555555556,40.119980494181306L198.5054861111111,33.82668129603067L198.66166666666666,46.413350025812775L198.8178472222222,52.70667266845703L198.97402777777776,55.85332226753235L199.13020833333334,46.413350025812775L199.2863888888889,49.560023069381714L199.44256944444444,49.560023069381714L199.59875,30.680008252461732L199.91111111111113,36.97333089510599L200.06729166666668,49.560023069381714L200.22347222222223,24.386685609817505L200.37965277777778,24.386662165323884L200.53583333333336,46.413326581319154L200.69201388888888,62.14664491017659L200.84819444444443,62.1466683546702L201.16055555555553,24.386662165323884L201.47291666666666,36.97330745061237L201.78527777777776,30.680008252461732L201.94145833333334,30.680008252461732L202.0976388888889,24.386685609817505L202.41,52.70667266845703L202.72236111111113,36.97333089510599L202.87854166666668,43.26667698224384L203.19090277777778,43.26667698224384L203.5032638888889,33.82668129603067L203.65944444444443,62.1466683546702L203.81562499999998,21.240012566248566L204.1279861111111,46.413350025812775L204.59652777777777,49.55999962488809L204.75270833333335,36.97330745061237L205.22125,36.97333089510599L205.53361111111113,43.26670042673746L206.00215277777778,36.97333089510599L206.47069444444446,58.99999531110127L206.62687499999998,27.533358653386415L206.78305555555553,33.82665785153705L206.93923611111111,49.55999962488809L207.09541666666667,43.26667698224384L207.25159722222222,43.26667698224384L207.40777777777777,52.70667266845703L207.56395833333332,36.9733777840932L207.7201388888889,36.9733777840932L207.87631944444445,49.55999962488809L208.18868055555555,49.560023069381714L208.34486111111113,49.55999962488809L208.50104166666668,59.00001875559488L208.96958333333333,21.240012566248566L209.1257638888889,71.58666404088336L209.43812499999999,43.26667698224384L209.59430555555554,46.413350025812775L209.7504861111111,27.533335208892822L209.90666666666667,46.413350025812775L210.21902777777777,30.680008252461732L210.68756944444445,43.26667698224384L210.84375,52.70667266845703L210.99993055555555,49.560023069381714L211.1561111111111,30.680008252461732L211.31229166666668,49.55999962488809L211.46847222222223,33.82668129603067L211.62465277777778,18.09336296717325L211.78083333333333,36.97333089510599L211.9370138888889,59.00001875559488L212.09319444444446,40.12002738316852L212.24937500000001,49.55999962488809L212.40555555555554,46.413350025812775L212.5617361111111,40.12002738316852L212.71791666666667,21.240012566248566L213.03027777777777,36.97333089510599L213.18645833333332,27.533335208892822L213.34263888888887,52.70667266845703L213.49881944444445,24.386685609817505L215.06062500000002,46.413350025812775L215.52916666666667,55.85332226753235L215.68534722222222,49.55999962488809L215.84152777777777,27.533335208892822L215.99770833333332,65.29331795374551L216.31006944444445,77.88001012802124L216.46625,33.82665785153705L216.62243055555555,36.97333089510599L216.7786111111111,43.26667698224384L216.93479166666665,43.26667698224384L217.24715277777779,40.12005082766214L217.40333333333334,43.26667698224384L217.5595138888889,36.9733777840932L217.71569444444447,27.533335208892822L217.87187500000002,43.26667698224384L218.02805555555557,58.99999531110127L218.1842361111111,46.413350025812775L218.34041666666664,36.97333089510599L218.49659722222222,40.119980494181306L218.65277777777777,40.12002738316852L218.80895833333332,46.413350025812775L219.12131944444445,30.680008252461732L219.2775,30.680008252461732L219.5898611111111,52.70667266845703L219.74604166666666,24.386685609817505L219.90222222222224,52.70667266845703L220.21458333333334,24.386662165323884L220.3707638888889,21.240012566248566L220.52694444444447,30.680008252461732L220.68312500000002,43.26667698224384L220.83930555555557,58.99999531110127L220.99548611111112,27.5333117643992L221.62020833333332,27.533335208892822L221.93256944444443,30.680008252461732L222.4011111111111,33.82668129603067L222.55729166666666,43.26667698224384L222.8696527777778,46.413350025812775L223.02583333333334,27.533335208892822L223.1820138888889,46.413326581319154L223.49437500000002,40.12002738316852L223.65055555555557,46.413350025812775L223.80673611111112,36.97333089510599L223.96291666666664,46.413350025812775L224.11909722222225,27.533358653386415L224.27527777777777,46.413350025812775L224.43145833333332,46.413350025812775L224.58763888888888,58.99999531110127L224.74381944444443,36.97333089510599L225.2123611111111,36.9733777840932L225.36854166666666,27.533358653386415L225.5247222222222,18.09336296717325L225.83708333333334,40.119980494181306L225.9932638888889,36.97330745061237L226.14944444444444,43.26667698224384L226.30562500000002,30.680008252461732L226.46180555555557,33.82668129603067L226.9303472222222,27.533335208892822L227.08652777777777,62.14664491017659L227.24270833333333,58.99999531110127L227.39888888888888,24.386709054311098L227.55506944444443,33.82668129603067L227.71125,24.386685609817505L227.86743055555556,30.680008252461732L228.17979166666666,40.12002738316852L228.3359722222222,24.386685609817505L228.4921527777778,46.413326581319154L228.64833333333334,21.240012566248566L228.8045138888889,43.26670042673746L228.96069444444444,43.26667698224384L229.116875,40.119980494181306L229.27305555555557,46.413350025812775L229.74159722222223,33.82668129603067L229.8977777777778,27.533335208892822L230.21013888888888,58.99999531110127L230.8348611111111,52.70667266845703L230.99104166666666,30.680008252461732L231.3034027777778,33.82668129603067L231.45958333333334,21.240012566248566L231.928125,40.12002738316852L232.24048611111112,46.413350025812775L232.39666666666668,18.093316078186035L232.55284722222223,46.413350025812775L232.86520833333336,40.119980494181306L233.02138888888888,36.9733777840932L233.17756944444443,30.680008252461732L233.33374999999998,30.680008252461732L233.6461111111111,18.09336296717325L233.80229166666666,30.680008252461732L233.9584722222222,62.14664491017659L234.11465277777776,36.97333089510599L234.27083333333334,49.560023069381714L234.58319444444444,27.533335208892822L234.739375,43.26667698224384L234.89555555555557,55.853345712025956L235.20791666666668,49.560023069381714L235.36409722222223,11.79999343554175L235.83263888888888,14.94668992360431L236.14499999999998,18.093316078186035L236.30118055555553,36.97333089510599L236.61354166666666,24.386685609817505L236.7697222222222,21.239965677261353L236.92590277777776,55.85332226753235L237.08208333333334,36.9733777840932L237.2382638888889,52.70667266845703L237.39444444444445,55.85332226753235L237.550625,36.97333089510599L238.01916666666668,43.26663009325662L238.17534722222223,24.386685609817505L238.33152777777778,33.82668129603067L238.48770833333336,33.82668129603067L238.6438888888889,8.65332039197284L238.80006944444443,40.119980494181306L238.95624999999998,33.82668129603067L239.2686111111111,30.67998480796814L239.42479166666666,27.533335208892822L239.58097222222221,52.70667266845703L239.73715277777777,49.55999962488809L239.89333333333335,36.97333089510599L240.0495138888889,27.533335208892822L240.51805555555555,40.12005082766214L240.83041666666668,40.12002738316852L240.98659722222223,36.9733777840932L241.14277777777778,27.533335208892822L241.29895833333333,27.533358653386415L241.4551388888889,30.680008252461732L241.61131944444446,40.12002738316852L241.76749999999998,62.1466683546702L241.92368055555553,43.26667698224384L242.07986111111111,30.680008252461732L242.23604166666667,24.386685609817505L242.70458333333332,52.70669611295064L242.8607638888889,43.26667698224384L243.32930555555555,52.70667266845703L243.48548611111113,36.97333089510599L243.79784722222223,-0.7866518497467041L243.95402777777778,14.94668992360431L244.11020833333333,30.680008252461732L244.42256944444446,33.82665785153705L244.57874999999999,43.26667698224384L244.73493055555554,36.97333089510599L245.04729166666667,27.533335208892822L245.20347222222222,30.680008252461732L245.35965277777777,52.70667266845703L245.6720138888889,30.67998480796814L245.82819444444445,40.12002738316852L245.984375,49.560023069381714L246.2967361111111,21.240012566248566L246.45291666666668,58.999971866607666L246.60909722222223,40.119980494181306L246.92145833333333,43.26667698224384L247.0776388888889,21.240036010742188L247.39000000000001,30.680008252461732L247.54618055555554,24.386685609817505L247.7023611111111,14.94668992360431L247.85854166666667,49.560023069381714L248.01472222222222,30.680008252461732L248.17090277777777,24.386685609817505L248.48326388888887,43.26667698224384L248.63944444444445,30.680008252461732L249.1079861111111,21.240012566248566L249.42034722222223,21.240012566248566L249.88888888888889,30.680008252461732L250.5136111111111,43.26667698224384L251.29451388888887,58.99999531110127L251.76305555555555,33.82668129603067L251.9192361111111,33.82668129603067L252.07541666666665,27.533358653386415L252.23159722222223,27.533335208892822L252.38777777777779,40.12002738316852L252.54395833333334,36.9733777840932L252.85631944444447,49.55999962488809L253.01250000000002,33.82668129603067L253.3248611111111,18.09336296717325L253.48104166666664,55.853345712025956L253.79340277777777,18.09336296717325L253.94958333333332,36.9733777840932L254.10576388888887,27.533335208892822L254.26194444444445,33.82668129603067L254.57430555555555,36.97333089510599L254.7304861111111,27.533335208892822L254.88666666666666,36.97330745061237L255.04284722222224,11.79999343554175L255.1990277777778,11.79999343554175L255.35520833333334,27.533335208892822L255.5113888888889,30.680008252461732L255.66756944444447,30.680008252461732L255.82375000000002,30.680008252461732L256.1361111111111,43.26667698224384L256.4484722222222,21.240036010742188L256.6046527777778,36.97333089510599L256.9170138888889,43.26667698224384L257.3855555555556,27.533335208892822L257.69791666666663,33.82665785153705L258.3226388888889,24.386709054311098L258.4788194444444,24.386662165323884L258.635,43.26670042673746L258.79118055555557,46.413350025812775L259.25972222222225,14.94668992360431L259.4159027777778,33.82665785153705L259.57208333333335,43.26667698224384L260.04062500000003,24.386662165323884L260.19680555555556,55.853345712025956L260.50916666666666,33.82668129603067L260.6653472222222,24.386685609817505L260.82152777777776,40.12002738316852L261.29006944444444,27.533358653386415L261.44625,27.533335208892822L261.91479166666664,40.119980494181306L262.0709722222222,21.240036010742188L262.2271527777778,14.94668992360431L262.3833333333333,33.82668129603067L262.5395138888889,36.97333089510599L262.6956944444444,30.680008252461732L262.851875,33.82668129603067L263.1642361111111,30.680008252461732L263.3204166666667,27.533335208892822L263.4765972222222,27.533335208892822L263.6327777777778,36.97333089510599L263.7889583333333,33.82668129603067L263.9451388888889,52.70667266845703L264.1013194444444,14.94668992360431L264.2575,27.533335208892822L264.4136805555556,46.413350025812775L265.0384027777778,49.560023069381714L265.3507638888889,30.680008252461732" style="fill: none;" fill="none"></path></g></g></g></g></g></g><g transform="translate(48, 177)" clip-path="url(#clip_1)"><clipPath id="clip_1"><rect width="281" height="23"></rect></clipPath><g><g><line x1="0" y1="0" x2="0" y2="5" style="visibility: inherit;" fill="rgb(0, 0, 0)" stroke="rgb(204, 204, 204)" stroke-width="1px"></line><line x1="31.23611111111111" y1="0" x2="31.23611111111111" y2="5" style="visibility: inherit;" fill="rgb(0, 0, 0)" stroke="rgb(204, 204, 204)" stroke-width="1px"></line><line x1="62.47222222222222" y1="0" x2="62.47222222222222" y2="5" style="visibility: inherit;" fill="rgb(0, 0, 0)" stroke="rgb(204, 204, 204)" stroke-width="1px"></line><line x1="93.70833333333333" y1="0" x2="93.70833333333333" y2="5" style="visibility: inherit;" fill="rgb(0, 0, 0)" stroke="rgb(204, 204, 204)" stroke-width="1px"></line><line x1="124.94444444444444" y1="0" x2="124.94444444444444" y2="5" style="visibility: inherit;" fill="rgb(0, 0, 0)" stroke="rgb(204, 204, 204)" stroke-width="1px"></line><line x1="156.18055555555557" y1="0" x2="156.18055555555557" y2="5" style="visibility: inherit;" fill="rgb(0, 0, 0)" stroke="rgb(204, 204, 204)" stroke-width="1px"></line><line x1="187.41666666666666" y1="0" x2="187.41666666666666" y2="5" style="visibility: inherit;" fill="rgb(0, 0, 0)" stroke="rgb(204, 204, 204)" stroke-width="1px"></line><line x1="218.65277777777777" y1="0" x2="218.65277777777777" y2="5" style="visibility: inherit;" fill="rgb(0, 0, 0)" stroke="rgb(204, 204, 204)" stroke-width="1px"></line><line x1="249.88888888888889" y1="0" x2="249.88888888888889" y2="5" style="visibility: inherit;" fill="rgb(0, 0, 0)" stroke="rgb(204, 204, 204)" stroke-width="1px"></line><line x1="281.125" y1="0" x2="281.125" y2="5" style="visibility: inherit;" fill="rgb(0, 0, 0)" stroke="rgb(204, 204, 204)" stroke-width="1px"></line></g><g transform="translate(0, 8)"><text x="0" y="0" dx="0em" dy="0.95em" style="text-anchor: middle; visibility: hidden; font-family: &quot;Helvetica Neue&quot;, sans-serif; font-size: 12px; font-weight: 200;" fill="rgb(50, 49, 63)" stroke="none" stroke-width="1px">-2k</text><text x="31.23611111111111" y="0" dx="0em" dy="0.95em" style="text-anchor: middle; visibility: inherit; font-family: &quot;Helvetica Neue&quot;, sans-serif; font-size: 12px; font-weight: 200;" fill="rgb(50, 49, 63)" stroke="none" stroke-width="1px">0</text><text x="62.47222222222222" y="0" dx="0em" dy="0.95em" style="text-anchor: middle; visibility: inherit; font-family: &quot;Helvetica Neue&quot;, sans-serif; font-size: 12px; font-weight: 200;" fill="rgb(50, 49, 63)" stroke="none" stroke-width="1px">2k</text><text x="93.70833333333333" y="0" dx="0em" dy="0.95em" style="text-anchor: middle; visibility: inherit; font-family: &quot;Helvetica Neue&quot;, sans-serif; font-size: 12px; font-weight: 200;" fill="rgb(50, 49, 63)" stroke="none" stroke-width="1px">4k</text><text x="124.94444444444444" y="0" dx="0em" dy="0.95em" style="text-anchor: middle; visibility: inherit; font-family: &quot;Helvetica Neue&quot;, sans-serif; font-size: 12px; font-weight: 200;" fill="rgb(50, 49, 63)" stroke="none" stroke-width="1px">6k</text><text x="156.18055555555557" y="0" dx="0em" dy="0.95em" style="text-anchor: middle; visibility: inherit; font-family: &quot;Helvetica Neue&quot;, sans-serif; font-size: 12px; font-weight: 200;" fill="rgb(50, 49, 63)" stroke="none" stroke-width="1px">8k</text><text x="187.41666666666666" y="0" dx="0em" dy="0.95em" style="text-anchor: middle; visibility: inherit; font-family: &quot;Helvetica Neue&quot;, sans-serif; font-size: 12px; font-weight: 200;" fill="rgb(50, 49, 63)" stroke="none" stroke-width="1px">10k</text><text x="218.65277777777777" y="0" dx="0em" dy="0.95em" style="text-anchor: middle; visibility: inherit; font-family: &quot;Helvetica Neue&quot;, sans-serif; font-size: 12px; font-weight: 200;" fill="rgb(50, 49, 63)" stroke="none" stroke-width="1px">12k</text><text x="249.88888888888889" y="0" dx="0em" dy="0.95em" style="text-anchor: middle; visibility: inherit; font-family: &quot;Helvetica Neue&quot;, sans-serif; font-size: 12px; font-weight: 200;" fill="rgb(50, 49, 63)" stroke="none" stroke-width="1px">14k</text><text x="281.125" y="0" dx="0em" dy="0.95em" style="text-anchor: middle; visibility: hidden; font-family: &quot;Helvetica Neue&quot;, sans-serif; font-size: 12px; font-weight: 200;" fill="rgb(50, 49, 63)" stroke="none" stroke-width="1px">16k</text></g><line x1="0" y1="0" x2="281.125" y2="0" fill="rgb(0, 0, 0)" stroke="rgb(204, 204, 204)" stroke-width="1px"></line></g></g></g></g></svg>